<mxfile host="Electron" modified="2023-11-29T15:55:10.575Z" agent="Mozilla/5.0 (Macintosh; Intel Mac OS X 10_15_7) AppleWebKit/537.36 (KHTML, like Gecko) draw.io/22.1.2 Chrome/114.0.5735.289 Electron/25.9.4 Safari/537.36" etag="Xkuwm0Fqz7-YiYuX_Ugi" version="22.1.2" type="device">
  <diagram name="Page-1" id="mk0i5ma_kdw5kPqQwz_j">
    <mxGraphModel dx="871" dy="569" grid="1" gridSize="10" guides="1" tooltips="1" connect="1" arrows="1" fold="1" page="1" pageScale="1" pageWidth="500" pageHeight="400" math="0" shadow="0">
      <root>
        <mxCell id="0" />
        <mxCell id="1" parent="0" />
        <mxCell id="YU9MPsTPcigHvaExg4ho-4" value="Sound Detector" style="rounded=0;whiteSpace=wrap;html=1;" vertex="1" parent="1">
          <mxGeometry x="60" y="50" width="120" height="30" as="geometry" />
        </mxCell>
        <mxCell id="YU9MPsTPcigHvaExg4ho-5" value="PULL" style="rounded=0;whiteSpace=wrap;html=1;" vertex="1" parent="1">
          <mxGeometry x="190" y="170" width="120" height="20" as="geometry" />
        </mxCell>
        <mxCell id="YU9MPsTPcigHvaExg4ho-6" value="Sound Player" style="rounded=0;whiteSpace=wrap;html=1;" vertex="1" parent="1">
          <mxGeometry x="60" y="320" width="120" height="30" as="geometry" />
        </mxCell>
        <mxCell id="YU9MPsTPcigHvaExg4ho-10" style="edgeStyle=orthogonalEdgeStyle;rounded=0;orthogonalLoop=1;jettySize=auto;html=1;exitX=0.5;exitY=1;exitDx=0;exitDy=0;entryX=0.25;entryY=0;entryDx=0;entryDy=0;" edge="1" parent="1" source="YU9MPsTPcigHvaExg4ho-7" target="YU9MPsTPcigHvaExg4ho-5">
          <mxGeometry relative="1" as="geometry" />
        </mxCell>
        <mxCell id="YU9MPsTPcigHvaExg4ho-7" value="PUSH" style="rounded=0;whiteSpace=wrap;html=1;" vertex="1" parent="1">
          <mxGeometry x="60" y="80" width="120" height="20" as="geometry" />
        </mxCell>
        <mxCell id="YU9MPsTPcigHvaExg4ho-8" value="Sound Detector" style="rounded=0;whiteSpace=wrap;html=1;" vertex="1" parent="1">
          <mxGeometry x="320" y="50" width="120" height="30" as="geometry" />
        </mxCell>
        <mxCell id="YU9MPsTPcigHvaExg4ho-11" style="edgeStyle=orthogonalEdgeStyle;rounded=0;orthogonalLoop=1;jettySize=auto;html=1;exitX=0.5;exitY=1;exitDx=0;exitDy=0;entryX=0.75;entryY=0;entryDx=0;entryDy=0;" edge="1" parent="1" source="YU9MPsTPcigHvaExg4ho-9" target="YU9MPsTPcigHvaExg4ho-5">
          <mxGeometry relative="1" as="geometry" />
        </mxCell>
        <mxCell id="YU9MPsTPcigHvaExg4ho-9" value="PUSH" style="rounded=0;whiteSpace=wrap;html=1;" vertex="1" parent="1">
          <mxGeometry x="320" y="80" width="120" height="20" as="geometry" />
        </mxCell>
        <mxCell id="YU9MPsTPcigHvaExg4ho-14" value="Playback Distributor" style="rounded=0;whiteSpace=wrap;html=1;" vertex="1" parent="1">
          <mxGeometry x="190" y="190" width="120" height="30" as="geometry" />
        </mxCell>
        <mxCell id="YU9MPsTPcigHvaExg4ho-18" style="edgeStyle=orthogonalEdgeStyle;rounded=0;orthogonalLoop=1;jettySize=auto;html=1;exitX=0.25;exitY=1;exitDx=0;exitDy=0;entryX=0.5;entryY=0;entryDx=0;entryDy=0;" edge="1" parent="1" source="YU9MPsTPcigHvaExg4ho-15" target="YU9MPsTPcigHvaExg4ho-16">
          <mxGeometry relative="1" as="geometry" />
        </mxCell>
        <mxCell id="YU9MPsTPcigHvaExg4ho-21" style="edgeStyle=orthogonalEdgeStyle;rounded=0;orthogonalLoop=1;jettySize=auto;html=1;exitX=0.75;exitY=1;exitDx=0;exitDy=0;entryX=0.5;entryY=0;entryDx=0;entryDy=0;" edge="1" parent="1" source="YU9MPsTPcigHvaExg4ho-15" target="YU9MPsTPcigHvaExg4ho-20">
          <mxGeometry relative="1" as="geometry" />
        </mxCell>
        <mxCell id="YU9MPsTPcigHvaExg4ho-24" style="edgeStyle=orthogonalEdgeStyle;rounded=0;orthogonalLoop=1;jettySize=auto;html=1;exitX=0.5;exitY=1;exitDx=0;exitDy=0;entryX=0.5;entryY=0;entryDx=0;entryDy=0;" edge="1" parent="1" source="YU9MPsTPcigHvaExg4ho-15" target="YU9MPsTPcigHvaExg4ho-23">
          <mxGeometry relative="1" as="geometry" />
        </mxCell>
        <mxCell id="YU9MPsTPcigHvaExg4ho-15" value="PUB" style="rounded=0;whiteSpace=wrap;html=1;" vertex="1" parent="1">
          <mxGeometry x="190" y="220" width="120" height="20" as="geometry" />
        </mxCell>
        <mxCell id="YU9MPsTPcigHvaExg4ho-16" value="SUB" style="rounded=0;whiteSpace=wrap;html=1;" vertex="1" parent="1">
          <mxGeometry x="60" y="300" width="120" height="20" as="geometry" />
        </mxCell>
        <mxCell id="YU9MPsTPcigHvaExg4ho-19" value="Sound Player" style="rounded=0;whiteSpace=wrap;html=1;" vertex="1" parent="1">
          <mxGeometry x="320" y="320" width="120" height="30" as="geometry" />
        </mxCell>
        <mxCell id="YU9MPsTPcigHvaExg4ho-20" value="SUB" style="rounded=0;whiteSpace=wrap;html=1;" vertex="1" parent="1">
          <mxGeometry x="320" y="300" width="120" height="20" as="geometry" />
        </mxCell>
        <mxCell id="YU9MPsTPcigHvaExg4ho-22" value="Sound Player" style="rounded=0;whiteSpace=wrap;html=1;" vertex="1" parent="1">
          <mxGeometry x="190" y="320" width="120" height="30" as="geometry" />
        </mxCell>
        <mxCell id="YU9MPsTPcigHvaExg4ho-23" value="SUB" style="rounded=0;whiteSpace=wrap;html=1;" vertex="1" parent="1">
          <mxGeometry x="190" y="300" width="120" height="20" as="geometry" />
        </mxCell>
        <mxCell id="YU9MPsTPcigHvaExg4ho-25" value="Sound Detector" style="rounded=0;whiteSpace=wrap;html=1;" vertex="1" parent="1">
          <mxGeometry x="190" y="50" width="120" height="30" as="geometry" />
        </mxCell>
        <mxCell id="YU9MPsTPcigHvaExg4ho-27" style="edgeStyle=orthogonalEdgeStyle;rounded=0;orthogonalLoop=1;jettySize=auto;html=1;exitX=0.5;exitY=1;exitDx=0;exitDy=0;entryX=0.5;entryY=0;entryDx=0;entryDy=0;" edge="1" parent="1" source="YU9MPsTPcigHvaExg4ho-26" target="YU9MPsTPcigHvaExg4ho-5">
          <mxGeometry relative="1" as="geometry" />
        </mxCell>
        <mxCell id="YU9MPsTPcigHvaExg4ho-26" value="PUSH" style="rounded=0;whiteSpace=wrap;html=1;" vertex="1" parent="1">
          <mxGeometry x="190" y="80" width="120" height="20" as="geometry" />
        </mxCell>
      </root>
    </mxGraphModel>
  </diagram>
</mxfile>
